<svg width="24" height="21" viewBox="0 0 24 21" fill="none" xmlns="http://www.w3.org/2000/svg">
<path d="M22.6562 18.7034H21.0938V11.6721L21.3223 11.9006C21.4691 12.0472 21.6682 12.1295 21.8757 12.1293C22.0832 12.1291 22.2821 12.0465 22.4287 11.8997C22.5753 11.7528 22.6576 11.5537 22.6574 11.3462C22.6572 11.1387 22.5746 10.9398 22.4277 10.7932L12.8232 1.19166C12.5302 0.898855 12.133 0.734375 11.7188 0.734375C11.3045 0.734375 10.9073 0.898855 10.6143 1.19166L1.00977 10.7932C0.863301 10.9398 0.781069 11.1386 0.781161 11.3458C0.781252 11.553 0.86366 11.7517 1.01025 11.8982C1.15685 12.0447 1.35562 12.1269 1.56285 12.1268C1.77007 12.1267 1.96877 12.0443 2.11523 11.8977L2.34375 11.6721V18.7034H0.78125C0.57405 18.7034 0.375336 18.7857 0.228823 18.9322C0.08231 19.0787 0 19.2774 0 19.4846C0 19.6918 0.08231 19.8905 0.228823 20.0371C0.375336 20.1836 0.57405 20.2659 0.78125 20.2659H22.6562C22.8635 20.2659 23.0622 20.1836 23.2087 20.0371C23.3552 19.8905 23.4375 19.6918 23.4375 19.4846C23.4375 19.2774 23.3552 19.0787 23.2087 18.9322C23.0622 18.7857 22.8635 18.7034 22.6562 18.7034ZM14.0625 18.7034H9.375V14.0159C9.375 13.9123 9.41615 13.8129 9.48941 13.7397C9.56267 13.6664 9.66202 13.6253 9.76562 13.6253H13.6719C13.7755 13.6253 13.8748 13.6664 13.9481 13.7397C14.0213 13.8129 14.0625 13.9123 14.0625 14.0159V18.7034Z" fill="#05868E"/>
</svg>
