<svg width="1920" height="852" viewBox="0 0 1920 852" fill="none" xmlns="http://www.w3.org/2000/svg">
<g clip-path="url(#clip0_142_6746)">
<path d="M-206.373 879.153H-201.809L-455.533 230.642C-475.064 180.72 -475.247 137.94 -455.807 110.51C-441.843 90.6216 -418.387 80.1435 -387.995 80.1435C-375.765 80.1435 -362.531 81.812 -348.476 85.2157C-247.078 109.843 -130.986 215.826 -89.7327 321.608L128.397 879.153H132.96L-85.8082 320.14C-127.517 213.289 -244.887 106.172 -347.472 81.2781C-361.801 77.7409 -375.4 76.0056 -387.995 76.0056C-419.847 76.0056 -444.398 87.2179 -459.184 108.241C-479.536 136.806 -479.536 180.72 -459.457 232.177L-206.373 879.153Z" fill="url(#paint0_linear_142_6746)"/>
<path d="M-203.908 879.154H-199.345L-523.983 211.356C-552.185 153.159 -556.018 100.768 -534.479 67.3979C-518.69 42.9711 -490.488 30.0236 -453.068 30.0236C-444.58 30.0236 -435.454 30.691 -426.144 32.0926C-314.889 48.2436 -178.444 156.028 -121.95 272.089L173.209 879.154H177.864L-118.299 270.287C-175.25 153.092 -313.064 44.3727 -425.597 28.0214C-477.893 20.4131 -517.686 33.6943 -538.038 65.1288C-560.399 99.7 -556.566 153.693 -527.725 213.158L-203.908 879.154Z" fill="url(#paint1_linear_142_6746)"/>
<path d="M-205.464 879.158H-200.718L-599.466 197.344C-638.984 129.603 -647.746 67.2678 -623.286 26.3563C-605.398 -3.81015 -571.264 -19.761 -524.718 -19.761C-521.523 -19.761 -518.42 -19.6275 -515.226 -19.6275C-394.388 -14.0881 -236.038 92.9626 -162.294 219.234L223.585 879.158H228.331L-158.644 217.165C-233.027 89.8926 -392.927 -18.1592 -515.226 -23.6319C-518.42 -23.7654 -521.614 -23.9656 -524.809 -23.9656C-572.907 -23.9656 -608.319 -7.28062 -627.028 24.2873C-652.218 66.5336 -643.457 130.27 -603.025 199.479L-205.464 879.158Z" fill="url(#paint2_linear_142_6746)"/>
<path d="M-211.948 879.158H-206.837L-681.611 190.136C-733.998 113.985 -749.605 41.506 -724.324 -8.48215C-706.253 -44.3214 -668.925 -65.0108 -616.628 -68.2143C-611.882 -68.4813 -607.045 -68.6815 -602.299 -68.6815C-472.699 -68.6815 -301.117 33.3637 -211.492 163.506L281.718 879.158H286.646L-208.024 161.104C-298.287 30.0267 -471.513 -72.6191 -602.299 -72.6191C-607.228 -72.6191 -612.065 -72.6191 -616.811 -72.2187C-670.75 -68.9484 -709.265 -47.525 -728.157 -10.2841C-754.077 41.0388 -738.379 114.987 -684.988 192.538L-211.948 879.158Z" fill="url(#paint3_linear_142_6746)"/>
<path d="M-267.158 102.97C-370.564 -26.1052 -546.619 -119.741 -685.711 -119.741C-701.591 -119.741 -716.924 -118.473 -731.253 -115.937C-753.979 -111.933 -772.963 -104.124 -789.573 -94.3801V-89.775C-772.963 -99.9862 -753.614 -107.862 -730.523 -111.933C-716.468 -114.402 -701.409 -115.603 -685.711 -115.603C-547.806 -115.603 -373.211 -22.7015 -270.535 105.506L349.993 879.087H355.378L-267.158 102.97Z" fill="url(#paint4_linear_142_6746)"/>
<path d="M-337.251 43.3066C-450.332 -78.6938 -629.946 -163.987 -773.784 -163.987C-779.26 -163.987 -784.188 -163.186 -789.573 -162.919V-158.848C-784.188 -159.115 -779.26 -159.916 -773.784 -159.916C-630.95 -159.916 -452.796 -75.1566 -340.355 46.1097L432.134 879.09H437.792L-337.251 43.3066Z" fill="url(#paint5_linear_142_6746)"/>
<path d="M-419.027 -16.558C-520.973 -111.996 -659.791 -178.469 -789.573 -198.09V-193.886C-660.795 -174.331 -523.163 -108.325 -421.856 -13.6882L533.349 879.157H539.191L-419.027 -16.558Z" fill="url(#paint6_linear_142_6746)"/>
<path d="M-513.215 -75.4274C-593.074 -140.032 -690.913 -188.952 -789.573 -216.315V-212.044C-691.826 -184.747 -595.082 -136.161 -515.953 -72.2906L661.397 879.153H668.151L-513.215 -75.4274Z" fill="url(#paint7_linear_142_6746)"/>
<path d="M-620.82 -131.685C-673.025 -167.925 -730.341 -197.49 -789.573 -220.315V-215.911C-731.162 -193.353 -674.85 -164.12 -623.284 -128.348L828.965 879.156H836.083L-620.82 -131.685Z" fill="url(#paint8_linear_142_6746)"/>
<path d="M1016.52 850.857L-742.297 -183.276C-757.538 -192.219 -773.784 -199.094 -789.573 -207.036V-202.497C-774.514 -194.889 -758.999 -188.348 -744.487 -179.806L1014.33 854.395C1027.65 862.203 1039.98 870.746 1052.48 879.155H1060.15C1046 869.411 1031.67 859.801 1016.52 850.857Z" fill="url(#paint9_linear_142_6746)"/>
<path d="M1121.66 747.872L-789.573 -184.884V-180.279L1119.74 751.542C1191.75 786.581 1254.27 830.229 1306.11 879.149H1312.04C1259.2 828.694 1195.5 783.844 1121.66 747.872Z" fill="url(#paint10_linear_142_6746)"/>
<path d="M1222.33 617.664L-789.574 -170V-165.528L1220.78 621.535C1366.26 678.397 1484.17 769.497 1558.74 879.084H1563.76C1488.74 767.828 1369.54 675.26 1222.33 617.664Z" fill="url(#paint11_linear_142_6746)"/>
<path d="M1773.03 812.149C1687.33 647.368 1520.22 517.96 1314.87 457.093L-789.576 -166.391V-162.119L1313.68 461.031C1518.03 521.564 1684.14 650.105 1769.29 813.951C1780.52 835.308 1789.46 857.198 1797.49 879.156H1801.96C1793.75 856.531 1784.44 834.106 1773.03 812.149Z" fill="url(#paint12_linear_142_6746)"/>
<path d="M1914.77 596.778C1802.6 428.194 1613.31 306.393 1395.46 262.679L-789.576 -175.735V-171.53L1394.73 266.75C1611.4 310.131 1799.77 431.33 1911.21 599.048C1969.26 686.21 2003.57 782.048 2013.16 879.155H2017.36C2007.77 781.247 1973.18 684.675 1914.77 596.778Z" fill="url(#paint13_linear_142_6746)"/>
<path d="M2019.55 311.8C1878.81 153.36 1679.94 53.5839 1459.26 30.9591L-789.575 -199.76V-195.623L1458.89 35.097C1678.39 57.5883 1876.44 156.764 2016.35 314.47C2156.27 472.109 2221.52 669.259 2199.98 869.745C2199.62 872.949 2198.8 876.019 2198.34 879.156H2202.63C2203 876.152 2203.82 873.216 2204.09 870.146C2225.81 668.658 2160.19 470.374 2019.55 311.8Z" fill="url(#paint14_linear_142_6746)"/>
<path d="M1635.31 -230.401H1609.57C1875.35 -198.499 2105.07 -51.6719 2245.07 157.557V149.682C2108.62 -50.9377 1889.31 -192.693 1635.31 -230.401Z" fill="url(#paint15_linear_142_6746)"/>
</g>
<defs>
<linearGradient id="paint0_linear_142_6746" x1="-149.604" y1="229.957" x2="129.77" y2="262.283" gradientUnits="userSpaceOnUse">
<stop offset="0.5" stop-color="#069895" stop-opacity="0.2"/>
<stop offset="0.8" stop-color="#10B7B4" stop-opacity="0"/>
<stop offset="0.9" stop-color="#069895" stop-opacity="0"/>
<stop offset="1" stop-color="#069895" stop-opacity="0"/>
<stop offset="1" stop-color="#069895" stop-opacity="0.6"/>
</linearGradient>
<linearGradient id="paint1_linear_142_6746" x1="-161.855" y1="189.478" x2="172.788" y2="233.298" gradientUnits="userSpaceOnUse">
<stop offset="0.5" stop-color="#069895" stop-opacity="0.2"/>
<stop offset="0.8" stop-color="#10B7B4" stop-opacity="0"/>
<stop offset="0.9" stop-color="#069895" stop-opacity="0"/>
<stop offset="1" stop-color="#069895" stop-opacity="0"/>
<stop offset="1" stop-color="#069895" stop-opacity="0.6"/>
</linearGradient>
<linearGradient id="paint2_linear_142_6746" x1="-176.132" y1="149.15" x2="220.514" y2="207.572" gradientUnits="userSpaceOnUse">
<stop offset="0.5" stop-color="#069895" stop-opacity="0.2"/>
<stop offset="0.8" stop-color="#10B7B4" stop-opacity="0"/>
<stop offset="0.9" stop-color="#069895" stop-opacity="0"/>
<stop offset="1" stop-color="#069895" stop-opacity="0"/>
<stop offset="1" stop-color="#069895" stop-opacity="0.6"/>
</linearGradient>
<linearGradient id="paint3_linear_142_6746" x1="-191.098" y1="109.822" x2="274.878" y2="186.747" gradientUnits="userSpaceOnUse">
<stop offset="0.5" stop-color="#069895" stop-opacity="0.2"/>
<stop offset="0.8" stop-color="#10B7B4" stop-opacity="0"/>
<stop offset="0.9" stop-color="#069895" stop-opacity="0"/>
<stop offset="1" stop-color="#069895" stop-opacity="0"/>
<stop offset="1" stop-color="#069895" stop-opacity="0.6"/>
</linearGradient>
<linearGradient id="paint4_linear_142_6746" x1="-177.219" y1="71.7195" x2="340.494" y2="162.509" gradientUnits="userSpaceOnUse">
<stop offset="0.5" stop-color="#069895" stop-opacity="0.2"/>
<stop offset="0.8" stop-color="#10B7B4" stop-opacity="0"/>
<stop offset="0.9" stop-color="#069895" stop-opacity="0"/>
<stop offset="1" stop-color="#069895" stop-opacity="0"/>
<stop offset="1" stop-color="#069895" stop-opacity="0.6"/>
</linearGradient>
<linearGradient id="paint5_linear_142_6746" x1="-133.141" y1="35.9552" x2="420.949" y2="135.7" gradientUnits="userSpaceOnUse">
<stop offset="0.5" stop-color="#069895" stop-opacity="0.2"/>
<stop offset="0.8" stop-color="#10B7B4" stop-opacity="0"/>
<stop offset="0.9" stop-color="#069895" stop-opacity="0"/>
<stop offset="1" stop-color="#069895" stop-opacity="0"/>
<stop offset="1" stop-color="#069895" stop-opacity="0.6"/>
</linearGradient>
<linearGradient id="paint6_linear_142_6746" x1="-78.9105" y1="8.40218" x2="519.1" y2="121.25" gradientUnits="userSpaceOnUse">
<stop offset="0.5" stop-color="#069895" stop-opacity="0.2"/>
<stop offset="0.8" stop-color="#10B7B4" stop-opacity="0"/>
<stop offset="0.9" stop-color="#069895" stop-opacity="0"/>
<stop offset="1" stop-color="#069895" stop-opacity="0"/>
<stop offset="1" stop-color="#069895" stop-opacity="0.6"/>
</linearGradient>
<linearGradient id="paint7_linear_142_6746" x1="-9.93848" y1="-6.33015" x2="642.436" y2="126.478" gradientUnits="userSpaceOnUse">
<stop offset="0.5" stop-color="#069895" stop-opacity="0.2"/>
<stop offset="0.8" stop-color="#10B7B4" stop-opacity="0"/>
<stop offset="0.9" stop-color="#069895" stop-opacity="0"/>
<stop offset="1" stop-color="#069895" stop-opacity="0"/>
<stop offset="1" stop-color="#069895" stop-opacity="0.6"/>
</linearGradient>
<linearGradient id="paint8_linear_142_6746" x1="79.8767" y1="-9.56285" x2="800.676" y2="153.483" gradientUnits="userSpaceOnUse">
<stop offset="0.5" stop-color="#069895" stop-opacity="0.2"/>
<stop offset="0.8" stop-color="#10B7B4" stop-opacity="0"/>
<stop offset="0.9" stop-color="#069895" stop-opacity="0"/>
<stop offset="1" stop-color="#069895" stop-opacity="0"/>
<stop offset="1" stop-color="#069895" stop-opacity="0.6"/>
</linearGradient>
<linearGradient id="paint9_linear_142_6746" x1="199.712" y1="1.17111" x2="1007.03" y2="211.497" gradientUnits="userSpaceOnUse">
<stop offset="0.5" stop-color="#069895" stop-opacity="0.2"/>
<stop offset="0.8" stop-color="#10B7B4" stop-opacity="0"/>
<stop offset="0.9" stop-color="#069895" stop-opacity="0"/>
<stop offset="1" stop-color="#069895" stop-opacity="0"/>
<stop offset="1" stop-color="#069895" stop-opacity="0.6"/>
</linearGradient>
<linearGradient id="paint10_linear_142_6746" x1="334.435" y1="19.0752" x2="1232" y2="290.29" gradientUnits="userSpaceOnUse">
<stop offset="0.5" stop-color="#069895" stop-opacity="0.2"/>
<stop offset="0.8" stop-color="#10B7B4" stop-opacity="0"/>
<stop offset="0.9" stop-color="#069895" stop-opacity="0"/>
<stop offset="1" stop-color="#069895" stop-opacity="0"/>
<stop offset="1" stop-color="#069895" stop-opacity="0.6"/>
</linearGradient>
<linearGradient id="paint11_linear_142_6746" x1="469.059" y1="31.0941" x2="1450.32" y2="367.847" gradientUnits="userSpaceOnUse">
<stop offset="0.5" stop-color="#069895" stop-opacity="0.2"/>
<stop offset="0.8" stop-color="#10B7B4" stop-opacity="0"/>
<stop offset="0.9" stop-color="#069895" stop-opacity="0"/>
<stop offset="1" stop-color="#069895" stop-opacity="0"/>
<stop offset="1" stop-color="#069895" stop-opacity="0.6"/>
</linearGradient>
<linearGradient id="paint12_linear_142_6746" x1="596.457" y1="34.0252" x2="1652.47" y2="434.462" gradientUnits="userSpaceOnUse">
<stop offset="0.5" stop-color="#069895" stop-opacity="0.2"/>
<stop offset="0.8" stop-color="#10B7B4" stop-opacity="0"/>
<stop offset="0.9" stop-color="#069895" stop-opacity="0"/>
<stop offset="1" stop-color="#069895" stop-opacity="0"/>
<stop offset="1" stop-color="#069895" stop-opacity="0.6"/>
</linearGradient>
<linearGradient id="paint13_linear_142_6746" x1="711.655" y1="26.4717" x2="1833.93" y2="483.322" gradientUnits="userSpaceOnUse">
<stop offset="0.5" stop-color="#069895" stop-opacity="0.2"/>
<stop offset="0.8" stop-color="#10B7B4" stop-opacity="0"/>
<stop offset="0.9" stop-color="#069895" stop-opacity="0"/>
<stop offset="1" stop-color="#069895" stop-opacity="0"/>
<stop offset="1" stop-color="#069895" stop-opacity="0.6"/>
</linearGradient>
<linearGradient id="paint14_linear_142_6746" x1="813.706" y1="7.05186" x2="1997.07" y2="510.061" gradientUnits="userSpaceOnUse">
<stop offset="0.5" stop-color="#069895" stop-opacity="0.2"/>
<stop offset="0.8" stop-color="#10B7B4" stop-opacity="0"/>
<stop offset="0.9" stop-color="#069895" stop-opacity="0"/>
<stop offset="1" stop-color="#069895" stop-opacity="0"/>
<stop offset="1" stop-color="#069895" stop-opacity="0.6"/>
</linearGradient>
<linearGradient id="paint15_linear_142_6746" x1="1949.46" y1="-156.035" x2="2228.14" y2="-86.1964" gradientUnits="userSpaceOnUse">
<stop offset="0.5" stop-color="#069895" stop-opacity="0.2"/>
<stop offset="0.8" stop-color="#10B7B4" stop-opacity="0"/>
<stop offset="0.9" stop-color="#069895" stop-opacity="0"/>
<stop offset="1" stop-color="#069895" stop-opacity="0"/>
<stop offset="1" stop-color="#069895" stop-opacity="0.6"/>
</linearGradient>
<clipPath id="clip0_142_6746">
<rect width="1920" height="852" fill="white"/>
</clipPath>
</defs>
</svg>
