<svg width="299" height="87" viewBox="0 0 299 87" fill="none" xmlns="http://www.w3.org/2000/svg">
<path d="M53.3604 1.51197V56.974C53.3604 63.2618 53.1554 67.6871 52.7453 70.25C52.3353 72.7788 51.1221 75.393 49.1059 78.0926C47.0898 80.7581 44.4243 82.7914 41.1096 84.1924C37.829 85.5593 33.9504 86.2428 29.4738 86.2428C24.5188 86.2428 20.1447 85.4227 16.3516 83.7824C12.5584 82.1421 9.72209 80.0063 7.8426 77.375C5.96311 74.7437 4.8525 71.9758 4.51078 69.0711C4.16905 66.1323 3.99819 59.9812 3.99819 50.6179V1.51197H25.5781V63.7402C25.5781 67.3625 25.7661 69.6862 26.142 70.7114C26.5521 71.7024 27.3551 72.1979 28.5512 72.1979C29.9181 72.1979 30.7895 71.6511 31.1654 70.5576C31.5754 69.4299 31.7805 66.7986 31.7805 62.6637V1.51197H53.3604ZM98.9808 1.51197L111.334 84.5H89.2416L88.1652 69.5837H80.4251L79.1436 84.5H56.7948L67.7642 1.51197H98.9808ZM87.5501 54.8724C86.4565 45.475 85.363 33.8734 84.2695 20.0677C82.0825 35.9237 80.7155 47.5253 80.1688 54.8724H87.5501Z" fill="#A0D3D2"/>
<path d="M122.065 0.897562H130.603C132.912 0.897562 134.684 1.0788 135.919 1.44127C137.168 1.80375 138.101 2.32732 138.718 3.01199C139.349 3.69666 139.772 4.52901 139.987 5.50903C140.215 6.47562 140.329 7.97921 140.329 10.0198V12.8592C140.329 14.94 140.114 16.4571 139.685 17.4102C139.255 18.3634 138.463 19.0951 137.309 19.6052C136.167 20.1153 134.671 20.3704 132.818 20.3704H130.542V33.5H122.065V0.897562ZM130.542 6.47562V14.7722C130.784 14.7857 130.992 14.7924 131.167 14.7924C131.945 14.7924 132.482 14.6044 132.778 14.2285C133.086 13.8392 133.241 13.0404 133.241 11.8322V9.15389C133.241 8.03962 133.066 7.31468 132.717 6.97905C132.368 6.64343 131.643 6.47562 130.542 6.47562ZM142.766 0.897562H148.767C152.767 0.897562 155.473 1.05195 156.882 1.36072C158.305 1.6695 159.46 2.46157 160.346 3.73693C161.245 4.99888 161.695 7.01933 161.695 9.79829C161.695 12.3356 161.379 14.0406 160.749 14.9132C160.118 15.7858 158.876 16.3094 157.023 16.4839C158.701 16.9001 159.829 17.4572 160.406 18.1553C160.983 18.8534 161.339 19.4978 161.473 20.0885C161.621 20.6658 161.695 22.27 161.695 24.9013V33.5H153.821V22.6661C153.821 20.9208 153.68 19.8401 153.398 19.424C153.13 19.0078 152.412 18.7997 151.244 18.7997V33.5H142.766V0.897562ZM151.244 6.47562V13.7251C152.197 13.7251 152.861 13.5975 153.237 13.3425C153.627 13.074 153.821 12.2215 153.821 10.785V8.99279C153.821 7.95907 153.633 7.28112 153.257 6.95892C152.895 6.63672 152.224 6.47562 151.244 6.47562ZM173.475 0.897562V33.5H164.997V0.897562H173.475ZM194.841 10.7649H186.967V8.3484C186.967 7.2207 186.867 6.50247 186.665 6.1937C186.464 5.88492 186.128 5.73054 185.658 5.73054C185.148 5.73054 184.759 5.93862 184.49 6.3548C184.235 6.77097 184.108 7.40194 184.108 8.24771C184.108 9.33513 184.256 10.1541 184.551 10.7045C184.833 11.2549 185.632 11.9194 186.947 12.6981C190.72 14.94 193.096 16.7793 194.076 18.2157C195.056 19.6522 195.546 21.968 195.546 25.1631C195.546 27.4856 195.271 29.1973 194.72 30.2982C194.183 31.399 193.136 32.3253 191.579 33.0771C190.022 33.8155 188.209 34.1847 186.142 34.1847C183.873 34.1847 181.933 33.7551 180.322 32.8959C178.724 32.0367 177.677 30.9426 177.181 29.6135C176.684 28.2844 176.436 26.3982 176.436 23.9549V21.8203H184.309V25.7874C184.309 27.009 184.417 27.7944 184.631 28.1435C184.86 28.4925 185.256 28.667 185.82 28.667C186.383 28.667 186.8 28.4455 187.068 28.0025C187.35 27.5595 187.491 26.9016 187.491 26.029C187.491 24.1093 187.229 22.854 186.706 22.2633C186.169 21.6726 184.846 20.6859 182.739 19.3031C180.631 17.9069 179.235 16.8934 178.55 16.2624C177.865 15.6314 177.295 14.7588 176.838 13.6445C176.395 12.5303 176.174 11.1072 176.174 9.3754C176.174 6.87837 176.489 5.05258 177.12 3.89803C177.765 2.74349 178.798 1.84402 180.221 1.19962C181.644 0.541802 183.363 0.212891 185.377 0.212891C187.578 0.212891 189.451 0.568652 190.995 1.28017C192.552 1.99169 193.579 2.89116 194.076 3.97858C194.586 5.05258 194.841 6.88508 194.841 9.47609V10.7649ZM215.301 0.897562V7.42208H210.266V33.5H201.789V7.42208H196.774V0.897562H215.301ZM231.874 0.897562L236.727 33.5H228.048L227.625 27.64H224.584L224.081 33.5H215.301L219.61 0.897562H231.874ZM227.383 21.8606C226.954 18.1687 226.524 13.611 226.094 8.1873C225.235 14.4165 224.698 18.9742 224.483 21.8606H227.383ZM122.065 50.8976H128.066C132.066 50.8976 134.771 51.0519 136.181 51.3607C137.604 51.6695 138.758 52.4616 139.645 53.7369C140.544 54.9989 140.994 57.0193 140.994 59.7983C140.994 62.3356 140.678 64.0406 140.047 64.9132C139.416 65.7858 138.174 66.3094 136.322 66.4839C138 66.9001 139.128 67.4572 139.705 68.1553C140.282 68.8534 140.638 69.4978 140.772 70.0885C140.92 70.6658 140.994 72.27 140.994 74.9013V83.5H133.12V72.6661C133.12 70.9208 132.979 69.8401 132.697 69.424C132.429 69.0078 131.71 68.7997 130.542 68.7997V83.5H122.065V50.8976ZM130.542 56.4756V63.7251C131.496 63.7251 132.16 63.5975 132.536 63.3425C132.925 63.074 133.12 62.2215 133.12 60.785V58.9928C133.12 57.9591 132.932 57.2811 132.556 56.9589C132.194 56.6367 131.522 56.4756 130.542 56.4756ZM144.296 50.8976H158.433V57.4221H152.774V63.6043H158.07V69.8066H152.774V76.9755H158.997V83.5H144.296V50.8976ZM181.248 65.1146H172.771V59.4358C172.771 57.7846 172.677 56.7575 172.489 56.3548C172.314 55.9386 171.918 55.7305 171.301 55.7305C170.602 55.7305 170.159 55.9789 169.971 56.4756C169.783 56.9723 169.69 58.0463 169.69 59.6976V74.8409C169.69 76.4251 169.783 77.4588 169.971 77.9421C170.159 78.4254 170.582 78.667 171.24 78.667C171.871 78.667 172.281 78.4254 172.468 77.9421C172.67 77.4588 172.771 76.3244 172.771 74.5389V70.451H181.248V71.7196C181.248 75.0893 181.007 77.4789 180.523 78.8885C180.054 80.2982 179 81.5332 177.362 82.5938C175.737 83.6544 173.73 84.1847 171.341 84.1847C168.857 84.1847 166.81 83.7349 165.199 82.8355C163.588 81.936 162.521 80.6942 161.997 79.11C161.473 77.5125 161.212 75.1161 161.212 71.921V62.396C161.212 60.0467 161.292 58.288 161.453 57.12C161.614 55.9386 162.091 54.8042 162.883 53.7168C163.689 52.6294 164.796 51.7769 166.206 51.1593C167.629 50.5284 169.26 50.2129 171.099 50.2129C173.596 50.2129 175.657 50.6962 177.281 51.6628C178.906 52.6294 179.973 53.8376 180.483 55.2875C180.993 56.724 181.248 58.9659 181.248 62.0134V65.1146ZM202.352 50.8976L196.17 71.6995V83.5H188.317V71.6995L182.356 50.8976H190.149C191.371 57.2476 192.055 61.5234 192.203 63.7251C192.673 60.248 193.458 55.9722 194.559 50.8976H202.352ZM223.617 65.1146H215.14V59.4358C215.14 57.7846 215.046 56.7575 214.858 56.3548C214.683 55.9386 214.287 55.7305 213.67 55.7305C212.971 55.7305 212.528 55.9789 212.341 56.4756C212.153 56.9723 212.059 58.0463 212.059 59.6976V74.8409C212.059 76.4251 212.153 77.4588 212.341 77.9421C212.528 78.4254 212.951 78.667 213.609 78.667C214.24 78.667 214.65 78.4254 214.838 77.9421C215.039 77.4588 215.14 76.3244 215.14 74.5389V70.451H223.617V71.7196C223.617 75.0893 223.376 77.4789 222.893 78.8885C222.423 80.2982 221.369 81.5332 219.731 82.5938C218.107 83.6544 216.099 84.1847 213.71 84.1847C211.226 84.1847 209.179 83.7349 207.568 82.8355C205.957 81.936 204.89 80.6942 204.366 79.11C203.843 77.5125 203.581 75.1161 203.581 71.921V62.396C203.581 60.0467 203.661 58.288 203.822 57.12C203.983 55.9386 204.46 54.8042 205.252 53.7168C206.058 52.6294 207.165 51.7769 208.575 51.1593C209.998 50.5284 211.629 50.2129 213.468 50.2129C215.965 50.2129 218.026 50.6962 219.65 51.6628C221.275 52.6294 222.342 53.8376 222.852 55.2875C223.362 56.724 223.617 58.9659 223.617 62.0134V65.1146ZM235.136 50.8976V76.9755H240.291V83.5H226.658V50.8976H235.136ZM250.843 50.8976V83.5H242.365V50.8976H250.843ZM273.176 50.8976V83.5H265.745L261.335 68.6789V83.5H254.246V50.8976H261.335L266.087 65.5777V50.8976H273.176ZM296.052 62.8994H287.574V59.9393C287.574 58.0732 287.493 56.9052 287.332 56.4353C287.171 55.9655 286.788 55.7305 286.184 55.7305C285.661 55.7305 285.305 55.9319 285.117 56.3347C284.929 56.7374 284.835 57.7711 284.835 59.4358V75.0826C284.835 76.5459 284.929 77.5125 285.117 77.9824C285.305 78.4388 285.681 78.667 286.245 78.667C286.862 78.667 287.278 78.4052 287.493 77.8817C287.721 77.3581 287.836 76.3378 287.836 74.8208V70.9544H286.124V66.0006H296.052V83.5H290.715L289.93 81.1641C289.353 82.1709 288.621 82.9294 287.735 83.4396C286.862 83.9363 285.829 84.1847 284.634 84.1847C283.211 84.1847 281.875 83.8423 280.626 83.1577C279.391 82.4596 278.452 81.6004 277.807 80.5801C277.163 79.5598 276.76 78.4925 276.599 77.3782C276.438 76.2505 276.357 74.5657 276.357 72.3237V62.6377C276.357 59.5231 276.525 57.261 276.861 55.8514C277.196 54.4417 278.156 53.153 279.74 51.985C281.338 50.8036 283.399 50.2129 285.923 50.2129C288.406 50.2129 290.467 50.723 292.105 51.7433C293.743 52.7636 294.81 53.9786 295.307 55.3882C295.803 56.7844 296.052 58.8183 296.052 61.4898V62.8994Z" fill="white"/>
</svg>
