<svg width="160" height="46" viewBox="0 0 160 46" fill="none" xmlns="http://www.w3.org/2000/svg">
<path d="M28.4648 0.730469V30.3164C28.4648 33.6706 28.3555 36.0312 28.1367 37.3984C27.918 38.7474 27.2708 40.1419 26.1953 41.582C25.1198 43.0039 23.6979 44.0885 21.9297 44.8359C20.1797 45.5651 18.1107 45.9297 15.7227 45.9297C13.0794 45.9297 10.7461 45.4922 8.72266 44.6172C6.69922 43.7422 5.1862 42.6029 4.18359 41.1992C3.18099 39.7956 2.58854 38.319 2.40625 36.7695C2.22396 35.2018 2.13281 31.9206 2.13281 26.9258V0.730469H13.6445V33.9258C13.6445 35.8581 13.7448 37.0977 13.9453 37.6445C14.1641 38.1732 14.5924 38.4375 15.2305 38.4375C15.9596 38.4375 16.4245 38.1458 16.625 37.5625C16.8438 36.9609 16.9531 35.5573 16.9531 33.3516V0.730469H28.4648ZM52.8008 0.730469L59.3906 45H47.6055L47.0312 37.043H42.9023L42.2188 45H30.2969L36.1484 0.730469H52.8008ZM46.7031 29.1953C46.1198 24.1823 45.5365 17.9935 44.9531 10.6289C43.7865 19.0872 43.0573 25.276 42.7656 29.1953H46.7031Z" fill="#A0D3D2"/>
<path d="M65.9023 0.608398H70.457C71.6888 0.608398 72.6341 0.705078 73.293 0.898438C73.959 1.0918 74.4567 1.37109 74.7861 1.73633C75.1227 2.10156 75.3483 2.54557 75.4629 3.06836C75.5846 3.58398 75.6455 4.38607 75.6455 5.47461V6.98926C75.6455 8.09928 75.5309 8.90853 75.3018 9.41699C75.0726 9.92546 74.6501 10.3158 74.0342 10.5879C73.4255 10.86 72.627 10.9961 71.6387 10.9961H70.4248V18H65.9023V0.608398ZM70.4248 3.58398V8.00977C70.5537 8.01693 70.6647 8.02051 70.7578 8.02051C71.1732 8.02051 71.4596 7.92025 71.6172 7.71973C71.7819 7.51204 71.8643 7.08594 71.8643 6.44141V5.0127C71.8643 4.41829 71.7712 4.03158 71.585 3.85254C71.3988 3.6735 71.012 3.58398 70.4248 3.58398ZM76.9453 0.608398H80.1465C82.2806 0.608398 83.7236 0.690755 84.4756 0.855469C85.2347 1.02018 85.8506 1.44271 86.3232 2.12305C86.8031 2.79622 87.043 3.87402 87.043 5.35645C87.043 6.70996 86.8747 7.61947 86.5381 8.08496C86.2015 8.55046 85.5391 8.82975 84.5508 8.92285C85.446 9.14486 86.0475 9.44206 86.3555 9.81445C86.6634 10.1868 86.8532 10.5306 86.9248 10.8457C87.0036 11.1536 87.043 12.0094 87.043 13.4131V18H82.8428V12.2207C82.8428 11.2897 82.7676 10.7132 82.6172 10.4912C82.474 10.2692 82.0908 10.1582 81.4678 10.1582V18H76.9453V0.608398ZM81.4678 3.58398V7.45117C81.9762 7.45117 82.3307 7.38314 82.5312 7.24707C82.7389 7.10384 82.8428 6.64909 82.8428 5.88281V4.92676C82.8428 4.37533 82.7425 4.01367 82.542 3.8418C82.3486 3.66992 81.9906 3.58398 81.4678 3.58398ZM93.3271 0.608398V18H88.8047V0.608398H93.3271ZM104.725 5.87207H100.524V4.58301C100.524 3.98145 100.471 3.59831 100.363 3.43359C100.256 3.26888 100.077 3.18652 99.8262 3.18652C99.554 3.18652 99.3464 3.29753 99.2031 3.51953C99.0671 3.74154 98.999 4.07812 98.999 4.5293C98.999 5.10938 99.0778 5.54622 99.2354 5.83984C99.3857 6.13346 99.8118 6.48796 100.514 6.90332C102.526 8.09928 103.794 9.0804 104.316 9.84668C104.839 10.613 105.101 11.8483 105.101 13.5527C105.101 14.7917 104.954 15.7048 104.66 16.292C104.374 16.8792 103.815 17.3734 102.984 17.7744C102.154 18.1683 101.187 18.3652 100.084 18.3652C98.8737 18.3652 97.8389 18.1361 96.9795 17.6777C96.1273 17.2194 95.5687 16.6357 95.3037 15.9268C95.0387 15.2178 94.9062 14.2116 94.9062 12.9082V11.7695H99.1064V13.8857C99.1064 14.5374 99.1637 14.9564 99.2783 15.1426C99.4001 15.3288 99.6113 15.4219 99.9121 15.4219C100.213 15.4219 100.435 15.3037 100.578 15.0674C100.729 14.8311 100.804 14.4801 100.804 14.0146C100.804 12.9906 100.664 12.321 100.385 12.0059C100.098 11.6908 99.3929 11.1644 98.2686 10.4268C97.1442 9.68197 96.3994 9.14128 96.0342 8.80469C95.6689 8.4681 95.3646 8.0026 95.1211 7.4082C94.8848 6.8138 94.7666 6.05469 94.7666 5.13086C94.7666 3.79883 94.9349 2.82487 95.2715 2.20898C95.6152 1.5931 96.1667 1.11328 96.9258 0.769531C97.6849 0.41862 98.6016 0.243164 99.6758 0.243164C100.85 0.243164 101.849 0.432943 102.673 0.8125C103.504 1.19206 104.051 1.67188 104.316 2.25195C104.589 2.82487 104.725 3.80241 104.725 5.18457V5.87207ZM115.639 0.608398V4.08887H112.953V18H108.431V4.08887H105.756V0.608398H115.639ZM124.479 0.608398L127.068 18H122.438L122.213 14.874H120.591L120.322 18H115.639L117.938 0.608398H124.479ZM122.084 11.791C121.855 9.82161 121.626 7.3903 121.396 4.49707C120.938 7.81999 120.652 10.2513 120.537 11.791H122.084ZM65.9023 27.6084H69.1035C71.2376 27.6084 72.6807 27.6908 73.4326 27.8555C74.1917 28.0202 74.8076 28.4427 75.2803 29.123C75.7601 29.7962 76 30.874 76 32.3564C76 33.71 75.8317 34.6195 75.4951 35.085C75.1585 35.5505 74.4961 35.8298 73.5078 35.9229C74.403 36.1449 75.0046 36.4421 75.3125 36.8145C75.6204 37.1868 75.8102 37.5306 75.8818 37.8457C75.9606 38.1536 76 39.0094 76 40.4131V45H71.7998V39.2207C71.7998 38.2897 71.7246 37.7132 71.5742 37.4912C71.431 37.2692 71.0479 37.1582 70.4248 37.1582V45H65.9023V27.6084ZM70.4248 30.584V34.4512C70.9333 34.4512 71.2878 34.3831 71.4883 34.2471C71.696 34.1038 71.7998 33.6491 71.7998 32.8828V31.9268C71.7998 31.3753 71.6995 31.0137 71.499 30.8418C71.3057 30.6699 70.9476 30.584 70.4248 30.584ZM77.7617 27.6084H85.3027V31.0889H82.2842V34.3867H85.1094V37.6953H82.2842V41.5195H85.6035V45H77.7617V27.6084ZM97.4736 35.1924H92.9512V32.1631C92.9512 31.2822 92.901 30.7344 92.8008 30.5195C92.7077 30.2975 92.4964 30.1865 92.167 30.1865C91.7946 30.1865 91.5583 30.319 91.458 30.584C91.3577 30.849 91.3076 31.4219 91.3076 32.3027V40.3809C91.3076 41.2259 91.3577 41.7773 91.458 42.0352C91.5583 42.293 91.7839 42.4219 92.1348 42.4219C92.4714 42.4219 92.6898 42.293 92.79 42.0352C92.8975 41.7773 92.9512 41.1722 92.9512 40.2197V38.0391H97.4736V38.7158C97.4736 40.5133 97.3447 41.7881 97.0869 42.54C96.8363 43.292 96.2741 43.9508 95.4004 44.5166C94.5339 45.0824 93.4632 45.3652 92.1885 45.3652C90.8636 45.3652 89.7715 45.1253 88.9121 44.6455C88.0527 44.1657 87.4834 43.5033 87.2041 42.6582C86.9248 41.806 86.7852 40.5277 86.7852 38.8232V33.7422C86.7852 32.4889 86.8281 31.5508 86.9141 30.9277C87 30.2975 87.2542 29.6924 87.6768 29.1123C88.1064 28.5322 88.6973 28.0775 89.4492 27.748C90.2083 27.4115 91.0785 27.2432 92.0596 27.2432C93.3916 27.2432 94.4909 27.501 95.3574 28.0166C96.224 28.5322 96.7933 29.1768 97.0654 29.9502C97.3376 30.7165 97.4736 31.9124 97.4736 33.5381V35.1924ZM108.731 27.6084L105.434 38.7051V45H101.244V38.7051L98.0645 27.6084H102.222C102.873 30.9958 103.239 33.2767 103.317 34.4512C103.568 32.5964 103.987 30.3154 104.574 27.6084H108.731ZM120.075 35.1924H115.553V32.1631C115.553 31.2822 115.503 30.7344 115.402 30.5195C115.309 30.2975 115.098 30.1865 114.769 30.1865C114.396 30.1865 114.16 30.319 114.06 30.584C113.959 30.849 113.909 31.4219 113.909 32.3027V40.3809C113.909 41.2259 113.959 41.7773 114.06 42.0352C114.16 42.293 114.385 42.4219 114.736 42.4219C115.073 42.4219 115.291 42.293 115.392 42.0352C115.499 41.7773 115.553 41.1722 115.553 40.2197V38.0391H120.075V38.7158C120.075 40.5133 119.946 41.7881 119.688 42.54C119.438 43.292 118.876 43.9508 118.002 44.5166C117.135 45.0824 116.065 45.3652 114.79 45.3652C113.465 45.3652 112.373 45.1253 111.514 44.6455C110.654 44.1657 110.085 43.5033 109.806 42.6582C109.526 41.806 109.387 40.5277 109.387 38.8232V33.7422C109.387 32.4889 109.43 31.5508 109.516 30.9277C109.602 30.2975 109.856 29.6924 110.278 29.1123C110.708 28.5322 111.299 28.0775 112.051 27.748C112.81 27.4115 113.68 27.2432 114.661 27.2432C115.993 27.2432 117.092 27.501 117.959 28.0166C118.826 28.5322 119.395 29.1768 119.667 29.9502C119.939 30.7165 120.075 31.9124 120.075 33.5381V35.1924ZM126.22 27.6084V41.5195H128.97V45H121.697V27.6084H126.22ZM134.599 27.6084V45H130.076V27.6084H134.599ZM146.512 27.6084V45H142.548L140.195 37.0938V45H136.414V27.6084H140.195L142.73 35.4395V27.6084H146.512ZM158.715 34.0107H154.192V32.4316C154.192 31.4362 154.149 30.8132 154.063 30.5625C153.978 30.3118 153.773 30.1865 153.451 30.1865C153.172 30.1865 152.982 30.2939 152.882 30.5088C152.782 30.7236 152.731 31.2751 152.731 32.1631V40.5098C152.731 41.2904 152.782 41.806 152.882 42.0566C152.982 42.3001 153.183 42.4219 153.483 42.4219C153.813 42.4219 154.035 42.2822 154.149 42.0029C154.271 41.7236 154.332 41.1794 154.332 40.3701V38.3076H153.419V35.665H158.715V45H155.868L155.449 43.7539C155.141 44.291 154.751 44.6956 154.278 44.9678C153.813 45.2327 153.261 45.3652 152.624 45.3652C151.865 45.3652 151.152 45.1826 150.486 44.8174C149.827 44.445 149.326 43.9867 148.982 43.4424C148.639 42.8981 148.424 42.3288 148.338 41.7344C148.252 41.1328 148.209 40.234 148.209 39.0381V33.8711C148.209 32.2096 148.299 31.0029 148.478 30.251C148.657 29.499 149.169 28.8115 150.014 28.1885C150.866 27.5583 151.965 27.2432 153.312 27.2432C154.636 27.2432 155.736 27.5153 156.609 28.0596C157.483 28.6038 158.052 29.252 158.317 30.0039C158.582 30.7487 158.715 31.8337 158.715 33.2588V34.0107Z" fill="white"/>
</svg>
