<svg width="517" height="233" viewBox="0 0 517 233" fill="none" xmlns="http://www.w3.org/2000/svg">
<g filter="url(#filter0_d_92_4407)">
<path d="M106.662 214.5V177.406H13.9976V153.75L80.4864 12.934H108.762L42.2729 153.75H106.662V97.0598H131.858V153.75H152.854V177.406H131.858V214.5H106.662Z" fill="#05868E"/>
</g>
<path d="M288.66 38.6685L268.137 56.629C265.057 59.3208 260.221 57.1674 260.221 53.116V47.1104C260.215 47.1038 260.21 47.0994 260.203 47.0928C222.761 46.4487 192.062 76.2663 192.058 112.972C192.058 112.976 192.056 112.978 192.053 112.978H168.075C168.062 112.978 168.051 112.967 168.051 112.954C168.064 63.5297 208.79 23.4558 259.012 23.4558C259.415 23.4558 259.817 23.4558 260.221 23.4845V17.1948C260.221 13.1434 265.057 11.0186 268.137 13.6818L288.66 31.671C290.79 33.5128 290.79 36.7991 288.66 38.6685Z" fill="#05868E"/>
<path d="M260.198 47.0928C229.593 46.5754 203.507 66.3921 194.983 93.6951C193.081 99.7943 192.052 106.268 192.052 112.972V112.983H168.08C168.058 112.983 168.047 112.972 168.047 112.95C204.435 39.1111 260.198 47.0928 260.198 47.0928Z" fill="#06414A"/>
<path d="M341.826 170.375L315.747 178.903C313.041 179.781 310.162 178.166 309.586 175.418L304.059 148.93C303.225 144.963 307.543 141.904 311.083 143.915L316.38 146.918C322.482 137.003 325.965 125.388 325.965 112.979C325.965 88.2466 312.033 66.6309 291.48 55.3277L304.219 35.2897C304.226 35.2787 304.24 35.2753 304.252 35.282C331.586 50.7247 350 79.7287 350 112.979C350 129.722 345.336 145.361 337.219 158.76L342.717 161.877C346.288 163.916 345.741 169.1 341.826 170.375Z" fill="#05868E"/>
<path d="M316.374 146.914C322.481 137.005 325.96 125.391 325.96 112.983C325.96 95.5554 319.047 79.669 307.76 67.856C303.04 62.9018 297.547 58.6633 291.484 55.3275L304.214 35.2905C304.214 35.2905 351.755 99.2325 316.374 146.914Z" fill="#06414A"/>
<path d="M305 190.212C305.007 190.225 305.003 190.239 304.991 190.245C291.496 198.029 275.787 202.5 259.014 202.5C224.932 202.5 195.226 184.057 179.654 156.747L174.154 159.865C170.59 161.886 166.272 158.814 167.104 154.849L172.659 128.361C173.235 125.613 176.114 123.998 178.819 124.877L204.899 133.403C208.785 134.678 209.332 139.863 205.762 141.903L200.466 144.906C211.894 165.162 233.856 178.874 259.014 178.874C271.616 178.874 283.443 175.42 293.515 169.447C293.522 169.442 293.531 169.446 293.534 169.452L305 190.212Z" fill="#05868E"/>
<path d="M305 190.214C212.021 196.775 200.779 146.419 200.477 144.943C211.909 165.178 233.867 178.874 259.014 178.874C264.383 178.874 269.618 178.246 274.641 177.057C281.386 175.472 287.74 172.874 293.512 169.45C293.523 169.439 293.523 169.45 293.534 169.45L305 190.214Z" fill="#06414A"/>
<g filter="url(#filter1_d_92_4407)">
<path d="M456.662 214.5V177.406H363.998V153.75L430.486 12.934H458.762L392.273 153.75H456.662V97.0598H481.858V153.75H502.854V177.406H481.858V214.5H456.662Z" fill="#05868E"/>
</g>
<path d="M264.5 232.5C403.952 232.5 517 229.59 517 226C517 222.41 403.952 219.5 264.5 219.5C125.048 219.5 12 222.41 12 226C12 229.59 125.048 232.5 264.5 232.5Z" fill="#069895" fill-opacity="0.11"/>
<defs>
<filter id="filter0_d_92_4407" x="13.9961" y="12.9341" width="141.859" height="209.566" filterUnits="userSpaceOnUse" color-interpolation-filters="sRGB">
<feFlood flood-opacity="0" result="BackgroundImageFix"/>
<feColorMatrix in="SourceAlpha" type="matrix" values="0 0 0 0 0 0 0 0 0 0 0 0 0 0 0 0 0 0 127 0" result="hardAlpha"/>
<feOffset dx="3" dy="8"/>
<feComposite in2="hardAlpha" operator="out"/>
<feColorMatrix type="matrix" values="0 0 0 0 0.0235294 0 0 0 0 0.254902 0 0 0 0 0.290196 0 0 0 1 0"/>
<feBlend mode="normal" in2="BackgroundImageFix" result="effect1_dropShadow_92_4407"/>
<feBlend mode="normal" in="SourceGraphic" in2="effect1_dropShadow_92_4407" result="shape"/>
</filter>
<filter id="filter1_d_92_4407" x="363.996" y="12.9341" width="141.859" height="209.566" filterUnits="userSpaceOnUse" color-interpolation-filters="sRGB">
<feFlood flood-opacity="0" result="BackgroundImageFix"/>
<feColorMatrix in="SourceAlpha" type="matrix" values="0 0 0 0 0 0 0 0 0 0 0 0 0 0 0 0 0 0 127 0" result="hardAlpha"/>
<feOffset dx="3" dy="8"/>
<feComposite in2="hardAlpha" operator="out"/>
<feColorMatrix type="matrix" values="0 0 0 0 0.0235294 0 0 0 0 0.254902 0 0 0 0 0.290196 0 0 0 1 0"/>
<feBlend mode="normal" in2="BackgroundImageFix" result="effect1_dropShadow_92_4407"/>
<feBlend mode="normal" in="SourceGraphic" in2="effect1_dropShadow_92_4407" result="shape"/>
</filter>
</defs>
</svg>
